<svg xmlns="http://www.w3.org/2000/svg" viewBox="0 0 1057.43 1058.5"><g id="Camada_2" data-name="Camada 2"><g id="Camada_1-2" data-name="Camada 1"><path d="M540.67,1058.5H518.13c-1.78-.21-3.56-.51-5.34-.61-8.48-.45-17-.64-25.42-1.31q-25-2-49.65-6.27a517.15,517.15,0,0,1-77.91-19.81A530.69,530.69,0,0,1,28.45,700.43,517.77,517.77,0,0,1,3.69,590.82c-1.4-12.17-2.49-24.36-3-36.59-.55-13.48-1.09-27-.31-40.46.56-9.72,1-19.45,1.66-29.15a480.53,480.53,0,0,1,6.67-50.85,518.43,518.43,0,0,1,23.91-87.59,530.45,530.45,0,0,1,226.56-272A524.51,524.51,0,0,1,462.45,4.34q22.37-2.85,44.9-3.72C509,.56,510.64.21,512.29,0h34.23c1.5.21,3,.56,4.5.62,11.4.48,22.76,1.36,34.1,2.54,13.56,1.41,27,3.39,40.43,5.83a510.4,510.4,0,0,1,91.78,25.68Q853.85,87.2,944.7,201.87a520.69,520.69,0,0,1,92.93,181,511.83,511.83,0,0,1,15.83,75.82c1.54,11.86,3,23.71,3.26,35.69a36.74,36.74,0,0,0,.71,4.86v60.1c-.25,1.63-.62,3.25-.72,4.89-.2,3.19-.09,6.4-.37,9.58-1.3,14.41-3,28.76-5.41,43a519.31,519.31,0,0,1-19.75,79.65,530.18,530.18,0,0,1-228.46,285.6,522.8,522.8,0,0,1-157.14,63.26,466.54,466.54,0,0,1-47.2,8.32c-9.8,1.16-19.62,2.27-29.45,3.07-8,.65-16.12.8-24.17,1.22C543.39,1058,542,1058.3,540.67,1058.5ZM915.54,529.37C915.84,317,743.68,143,529.42,142.78c-212.59-.2-386.71,171.68-386.71,386.45,0,213.89,173,386.16,385.94,386.38C743.79,915.83,915.68,741.32,915.54,529.37Z"/><path d="M175.08,544.28c-.36-1.75.54-2.95,1.13-4.15,3.6-7.36,7.1-14.79,11-22,13.18-24.24,28.57-47.06,45.09-69.14a914.72,914.72,0,0,1,79.62-92.13c25.82-26.36,52.93-51.32,81-75.26,1.8-1.54,3.62-2.47,6-2.2a18.2,18.2,0,0,0,2.09,0H743.26c1.76,0,3.55-.26,5.17.25.4.88-.14,1.24-.49,1.62-24.55,27.06-46,56.47-66.2,86.88-35.5,53.57-65.69,110-91.75,168.75A1351.13,1351.13,0,0,0,520.6,733.77q-13.47,50-23.36,100.72c-.12.63-.36,1.25-.55,1.9-1.24-.3-.84-1.14-.87-1.7-.3-6.25-.45-12.51-.87-18.75A300.37,300.37,0,0,0,488,770.21a305.27,305.27,0,0,0-29.49-79.51c-28.4-52.15-69.92-90.15-123.92-114.62a332.54,332.54,0,0,0-66.9-21.75A427.69,427.69,0,0,0,220.78,547c-13.85-1.44-27.74-2-41.65-2.49C177.76,544.44,176.4,544.35,175.08,544.28Z"/><path d="M679.15,423.31l146.39,22.83c.24,0,.43.31.86.64a6,6,0,0,1-.94,1.11c-42,30.85-79.78,66.3-115.24,104.31A1021.4,1021.4,0,0,0,553.66,771.67q-16.9,31.89-31.41,64.94c-.59,1.35-.9,2.91-2.56,4.31.28-1.53.42-2.6.68-3.63,6-23.86,12.61-47.56,19.44-71.19,14.61-50.48,30.55-100.54,48.5-149.94,14-38.56,29.17-76.65,46.72-113.76,11.54-24.4,24.06-48.28,38.72-71C675.48,428.74,677.28,426.12,679.15,423.31Z"/><path d="M869.27,554.69c-.59.37-1,.69-1.53.93-24.91,12.2-48.57,26.52-71.71,41.74A1058.68,1058.68,0,0,0,669,696.14,1224.55,1224.55,0,0,0,546.14,824.46c-1.07,1.29-2.13,2.57-3.22,3.84a5.4,5.4,0,0,1-.93.63,3.94,3.94,0,0,1,.73-2.58c4.76-9.28,9.37-18.64,14.34-27.8,21.87-40.27,46.54-78.78,73-116.15A1430.8,1430.8,0,0,1,760.53,524.06c1.05-1.1,2-2.31,2.44-2.85,1-.29,1.16-.35,1.3-.37a1.13,1.13,0,0,1,.41,0l102.53,32.53a14.48,14.48,0,0,1,1.53.63C868.85,554.07,868.91,554.23,869.27,554.69Z"/></g></g></svg>